<svg id="visual" viewBox="0 0 900 700" xmlns="http://www.w3.org/2000/svg"
    xmlns:xlink="http://www.w3.org/1999/xlink" version="1.1">
    <rect x="0" y="0" width="900" height="600" fill="#002233"></rect>
    <path
        d="M0 500L16.7 485C33.3 470 66.7 440 100 428.8C133.3 417.7 166.7 425.3 200 435.2C233.3 445 266.7 457 300 467.7C333.3 478.3 366.7 487.7 400 472.7C433.3 457.7 466.7 418.3 500 421.8C533.3 425.3 566.7 471.7 600 491.5C633.3 511.3 666.7 504.7 700 490.8C733.3 477 766.7 456 800 458C833.3 460 866.7 485 883.3 497.5L900 510L900 601L883.3 601C866.7 601 833.3 601 800 601C766.7 601 733.3 601 700 601C666.7 601 633.3 601 600 601C566.7 601 533.3 601 500 601C466.7 601 433.3 601 400 601C366.7 601 333.3 601 300 601C266.7 601 233.3 601 200 601C166.7 601 133.3 601 100 601C66.7 601 33.3 601 16.7 601L0 601Z"
        fill="#F36D6D" stroke-linecap="round" stroke-linejoin="miter"></path>
</svg>