<?xml version="1.0" encoding="UTF-8" standalone="no"?>
<!DOCTYPE svg PUBLIC "-//W3C//DTD SVG 1.1//EN" "http://www.w3.org/Graphics/SVG/1.1/DTD/svg11.dtd">
<svg xmlns="http://www.w3.org/2000/svg" version="1.1" viewBox="0.00 0.00 1000.00 833.00">
<path fill="#f36d6d" d="
  M 646.24 429.79
  C 640.15 420.22 630.80 415.05 622.00 426.02
  C 608.85 442.42 597.62 462.81 579.54 476.56
  C 558.11 492.85 527.78 493.35 506.57 476.67
  C 488.09 462.14 474.97 440.94 461.54 421.46
  C 452.20 407.91 436.91 386.47 418.62 403.78
  C 405.80 415.92 400.52 431.99 390.90 446.29
  C 366.72 482.22 318.78 500.48 281.41 471.07
  C 268.81 461.15 257.16 447.25 249.78 432.98
  C 245.25 424.20 242.15 411.12 245.38 402.03
  C 250.86 386.63 273.07 380.87 285.63 391.16
  Q 288.37 393.41 292.11 399.52
  C 299.71 411.95 317.69 444.63 335.96 427.68
  Q 342.44 421.66 347.14 414.15
  C 368.33 380.30 389.87 339.09 437.63 343.21
  C 464.95 345.57 489.11 366.04 503.98 387.80
  Q 514.75 403.55 525.35 419.41
  C 529.40 425.46 540.49 440.39 547.99 432.79
  C 558.30 422.35 566.99 410.89 575.49 398.95
  Q 582.89 388.58 586.86 384.70
  C 614.01 358.24 657.03 360.59 681.87 389.14
  Q 686.38 394.32 693.55 403.72
  C 696.86 408.05 700.99 408.83 704.18 404.01
  C 712.37 391.66 723.06 381.81 738.93 388.31
  C 749.17 392.49 756.11 402.26 756.01 413.51
  C 755.85 431.42 739.59 449.59 725.13 458.41
  Q 709.76 467.79 691.78 464.76
  C 671.51 461.33 656.79 446.38 646.24 429.79
  Z"
/>
</svg>
